P3
50 50
255
117 215 239 254 101 118 228 77 236 109 0 102 251 145 26 9 251 204 145 153 182 212 71 105 86 137 7 109 53 227 176 117 174 124 21 224 171 51 83 95 190 112 72 181 141 78 199 231 24 12 64 123 54 242 127 104 180 238 156 0 139 154 187 86 133 39 196 193 126 26 55 124 146 226 25 121 194 147 42 225 94 93 224 177 229 161 17 180 40 151 149 90 240 198 50 190 71 147 61 246 176 17 9 200 157 4 101 92 164 31 198 112 147 153 176 222 252 94 197 183 40 158 204 162 91 139 49 122 74 23 16 196 163 239 254 38 206 96 64 163 112 207 244 37 129 154 60 37 46 79 230 193 77 171 225 220 247 144 10 80 188 34 76 44 4 104 154 217 46 17 181 208 116 115 24 211 36 212 166 127 147 88 68 237 239 193 227 131 245 112 58 43 116 92 143 12 155 67 248 121 35 161 12 35 154 220 43 54 120 215 207 165 134 168 121 113 9 17 51 46 3 3 109 153 179 172 255 138 170 242 180 83 43 227 222 189 181 151 217 179 193 195 24 206 215 152 113 160 119 107 225 112 233 165 220 169 90 34 240 104 34 108 157 136 156 29 247 170 96 89 48 147 197 26 23 59 202 37 109 248 46 211 233 171 43 119 233 42 43 143 15 1 89 253 154 0 231 35 166 118 119 100 215 81 236 110 157 92 31 28 143 70 246 160 104 117 75 182 166 249 155 128 200 86 110 239 125 139 4 60 169 102 12 0 215 104 42 28 174 223 193 53 192 111 60 122 173 204 11 167 91 67 69 200 88 219 46 23 172 224 113 135 122 117 211 131 1 35 237 88 43 82 210 36 4 102 137 244 95 214 171 74 18 11 216 166 130 13 29 254 93 137 46 189 201 8 17 251 220 108 70 47 88 116 135 180 168 54 94 27 79 224 142 55 162 208 0 48 55 100 87 119 32 213 53 135 125 36 131 206 4 247 222 197 114 60 238 114 18 105 203 113 70 40 156 173 6 64 58 81 198 144 191 42 189 67 170 174 93 137 179 0 34 125 223 16 26 138 209 19 42 75 242 24 122 214 120 38 1 39 143 163 192 45 249 70 188 138 45 44 135 27 182 110 181 4 156 251 114 191 176 208 90 51 201 47 12 142 18 87 92 111 207 214 36 6 60 80 116 166 224 251 132 134 239 231 2 164 62 3 31 63 208 96 34 41 165 86 127 185 110 54 31 149 228 92 252 230 134 33 167 99 184 170 118 151 157 145 96 252 229 190 104 59 141 234 59 106 122 88 71 218 131 74 116 134 40 94 107 138 245 251 107 197 219 180 225 59 47 166 230 254 200 54 173 252 176 36 112 241 7 39 198 66 16 35 32 0 198 97 68 192 168 114 228 239 131 255 174 88 124 199 172 79 229 3 137 204 123 128 132 17 234 138 174 199 6 17 197 203 177 20 71 54 175 248 245 110 245 226 87 119 162 99 241 110 166 181 199 164 113 150 117 111 102 192 211 12 149 119 240 4 152 24 222 57 171 64 16 124 48 122 173 35 141 123 201 237 89 15 165 210 189 25 155 0 95 231 79 83 197 175 245 102 131 63 188 190 124 114 95 233 82 54 54 148 248 211 100 158 146 131 164 1 139 236 170 99 81 79 132 24 28 161 230 70 142 39 5 117 91 85 142 141 228 243 141 186 3 102 21 251 217 28 120 5 118 216 234 78 57 200 147 206 179 210 149 216 247 21 109 158 30 50 107 205 151 205 240 101 63 212 103 40 249 145 122 187 246 119 52 7 115 47 41 191 63 172 18 237 72 173 249 120 170 164 206 167 151 192 134 56 92 67 107 61 119 227 2 210 136 90 72 32 64 91 14 64 225 79 227 43 213 99 185 93 131 176 106 15 147 155 136 30 236 153 167 185 56 244 153 31 56 194 215 153 214 92 34 208 118 15 84 0 97 36 154 104 52 59 206 49 178 82 17 122 63 140 83 132 228 156 252 198 4 51 66 172 226 53 217 9 68 242 179 110 167 154 188 137 12 192 38 59 153 120 2 141 165 187 65 229 119 174 23 157 1 222 253 71 212 101 176 176 217 103 106 3 82 24 200 46 161 189 144 207 195 251 126 155 78 15 211 174 112 22 165 107 8 74 147 202 250 78 147 37 224 217 40 13 29 40 122 80 65 12 48 46 242 203 186 232 1 129 15 179 242 43 209 180 228 66 115 252 33 17 141 195 28 220 235 115 27 204 10 24 131 85 25 178 167 203 243 77 186 98 98 39 88 5 101 111 166 147 234 236 44 20 253 1 113 170 181 91 89 112 192 34 60 173 227 80 184 15 120 51 83 68 48 17 59 194 132 179 219 65 9 0 216 112 121 172 127 207 129 237 215 184 217 92 252 8 248 31 189 20 92 213 78 101 193 62 142 122 223 158 186 78 53 70 46 61 159 48 124 250 105 140 64 131 2 108 167 9 94 70 214 79 210 17 65 194 34 183 87 23 181 142 109 3 129 248 190 23 15 244 244 53 232 164 48 47 31 56 132 254 231 216 76 163 31 244 154 35 159 99 242 236 55 218 214 58 45 236 61 113 61 239 225 35 105 229 156 226 112 69 63 75 132 221 84 35 140 75 100 110 12 134 121 155 196 182 254 178 93 71 183 127 221 220 169 117 68 61 232 179 155 230 38 221 60 80 239 51 159 184 16 49 214 34 0 23 61 248 34 175 60 209 160 62 243 141 94 188 139 241 66 34 68 239 153 118 170 111 181 219 125 137 177 206 219 244 29 93 35 143 186 187 231 250 91 165 202 11 109 250 255 180 141 80 144 250 235 23 74 225 36 23 81 108 213 120 134 84 92 56 116 160 102 96 128 174 162 35 118 142 86 182 103 164 126 48 141 86 140 140 25 71 249 221 225 80 16 173 201 249 27 76 145 80 162 204 27 153 123 40 137 182 185 205 227 1 94 187 150 66 132 130 126 101 12 128 37 53 238 197 126 69 153 12 54 66 9 227 167 64 209 1 174 101 218 148 34 223 34 208 204 206 234 242 86 41 183 222 157 28 217 15 245 97 45 64 64 160 242 76 70 227 39 250 71 165 61 28 206 215 195 72 69 148 79 52 68 103 97 26 31 132 76 234 129 215 246 229 85 37 44 87 158 80 167 217 181 23 95 36 216 78 37 34 159 12 240 185 254 20 110 44 0 67 77 22 53 211 112 216 237 13 129 91 40 91 179 79 196 179 248 233 48 52 136 25 194 117 24 114 230 144 10 1 50 213 141 148 70 162 54 194 119 55 202 77 8 130 53 147 80 204 191 185 47 97 146 251 91 9 153 60 251 17 97 97 156 177 220 0 22 193 46 101 54 66 28 193 155 160 92 170 242 34 244 151 180 49 110 1 235 193 111 55 193 187 51 28 166 227 155 66 182 143 154 233 108 242 130 80 203 236 110 50 213 81 251 214 193 9 110 193 200 190 143 139 189 124 70 226 32 39 76 136 53 252 232 202 52 180 113 246 80 112 49 232 237 227 186 188 15 190 173 2 188 123 213 42 194 47 55 102 124 74 76 175 115 248 18 21 147 116 10 42 38 7 170 168 172 224 9 214 147 72 241 60 105 174 122 254 210 71 217 166 44 243 160 99 217 164 77 9 168 177 207 1 113 94 119 79 202 226 24 192 129 149 150 104 50 172 155 147 37 8 93 97 225 65 26 33 143 92 187 158 189 57 22 131 40 165 204 167 115 127 19 98 165 165 141 138 253 158 248 168 223 203 194 103 31 129 92 123 33 176 213 152 130 89 135 29 61 40 242 165 61 254 150 193 219 194 143 154 92 166 216 174 222 111 114 162 229 237 224 170 179 7 187 55 158 176 217 4 60 138 15 138 188 116 234 176 55 110 86 130 11 51 85 100 118 164 166 159 134 193 36 22 30 232 120 36 234 1 170 39 176 182 122 243 191 216 30 168 27 3 49 181 118 40 165 87 157 4 196 19 50 231 220 98 146 57 235 66 187 76 173 112 147 100 233 233 112 51 215 133 109 238 105 150 197 24 214 135 170 186 202 196 170 245 216 114 179 255 145 225 245 253 60 111 33 102 199 222 22 223 249 100 184 191 242 65 99 245 56 31 225 84 34 160 46 138 57 209 133 253 160 107 173 0 255 190 243 103 140 254 65 239 35 199 182 101 9 133 109 165 116 2 160 132 101 84 97 60 14 237 174 85 243 194 229 186 47 1 162 194 1 86 212 43 105 62 100 23 43 178 117 2 134 243 94 251 176 52 181 227 118 75 67 19 206 15 39 41 255 14 219 128 179 64 217 106 253 143 147 112 1 168 78 145 144 40 139 67 178 97 241 238 219 165 253 101 210 40 121 175 235 123 75 227 230 40 170 55 36 128 234 20 216 124 242 102 51 215 91 165 192 31 157 150 132 85 86 161 203 20 252 32 252 235 233 92 164 94 170 173 125 78 54 86 47 13 39 56 248 211 178 181 253 199 42 200 105 231 153 28 194 75 234 108 115 219 173 205 126 208 156 174 181 24 79 227 13 64 218 15 63 156 35 173 23 127 156 232 123 206 93 211 157 0 147 89 146 232 150 207 115 249 129 15 222 224 64 234 209 111 222 11 196 141 21 61 49 132 30 93 71 164 42 10 185 18 76 41 0 98 102 193 96 123 126 206 98 170 136 140 51 62 170 172 99 136 159 155 243 16 87 11 218 215 96 111 103 148 7 27 9 242 7 117 161 161 90 122 170 117 145 123 72 26 186 11 160 211 76 200 95 0 230 196 145 77 31 213 249 29 187 233 151 81 209 141 173 236 200 22 173 142 155 66 219 85 29 213 103 143 6 107 165 249 141 47 152 247 97 203 152 240 224 231 7 129 23 174 181 148 226 132 228 115 206 19 6 17 126 217 51 158 117 77 45 47 199 57 124 114 199 63 158 165 24 226 165 252 171 63 164 79 213 236 119 37 156 33 0 207 182 84 152 109 132 92 107 206 173 186 139 103 48 155 216 15 90 85 29 145 247 235 118 171 214 34 182 6 29 80 234 111 37 105 47 57 90 41 219 39 73 133 253 238 19 100 201 41 193 187 194 117 40 58 236 157 22 250 187 63 9 179 105 98 170 106 9 199 49 179 114 237 225 90 247 95 147 43 80 172 65 88 91 207 153 228 231 23 181 234 68 245 50 185 198 85 55 218 153 44 26 10 235 42 36 60 45 111 241 107 191 175 197 243 43 165 116 135 66 104 230 3 71 34 169 8 172 65 126 5 86 179 97 2 94 154 72 159 147 11 99 8 58 109 253 148 140 132 222 230 29 52 231 185 34 24 66 46 137 215 171 80 143 101 1 6 7 79 168 182 219 122 108 241 113 165 228 8 12 17 188 255 54 130 72 122 220 33 218 35 233 57 95 13 254 49 5 69 24 245 153 64 103 104 90 155 29 188 179 100 220 142 231 192 89 67 8 32 43 68 170 103 140 39 147 221 223 188 88 172 64 40 71 14 247 27 110 200 62 203 156 65 231 126 121 59 56 127 209 40 157 126 128 187 74 193 178 165 20 21 17 54 86 56 167 242 245 175 152 108 154 97 254 41 81 2 54 195 126 196 4 36 54 1 184 102 83 180 94 245 24 163 189 66 215 207 147 61 53 22 97 146 85 42 162 237 35 173 205 58 115 19 39 74 70 158 210 71 173 176 5 36 78 250 210 60 23 200 96 122 86 124 162 26 70 155 39 15 62 219 110 51 113 141 105 86 180 235 106 54 112 131 112 8 68 114 248 4 86 100 162 107 90 61 203 208 100 188 74 180 22 241 84 220 229 147 24 225 176 117 134 113 172 12 210 204 112 110 62 115 1 121 138 103 153 216 123 69 100 122 53 94 219 0 80 76 156 4 238 194 206 60 215 151 203 142 105 47 125 191 75 39 26 230 236 60 110 106 83 39 221 244 221 154 97 138 86 14 188 117 150 26 190 86 175 190 50 231 48 63 151 219 42 231 83 15 108 246 233 95 169 4 52 22 95 7 72 172 46 76 85 97 193 112 162 182 51 244 236 7 92 103 124 237 228 146 53 34 196 195 129 180 87 185 80 70 2 5 10 147 135 207 180 96 150 249 32 34 41 235 31 249 5 96 61 153 70 12 81 25 185 169 36 239 145 60 173 41 6 249 137 125 31 213 246 5 163 114 93 71 150 165 44 60 182 117 100 55 162 7 155 184 13 196 139 40 102 59 88 222 176 146 223 63 5 224 22 13 236 63 224 189 95 109 120 47 0 118 110 189 211 233 200 68 192 74 47 183 214 243 100 29 174 239 163 253 133 77 133 194 237 83 13 59 123 113 143 185 123 247 129 115 107 30 176 253 241 105 16 17 172 54 155 243 226 151 127 148 232 60 17 193 74 153 231 78 139 217 186 27 6 185 204 188 123 161 210 28 20 226 30 238 36 82 143 168 15 242 213 98 208 163 163 111 20 62 46 223 62 161 44 39 61 149 184 203 225 147 199 227 182 83 227 240 144 174 117 251 221 192 180 39 148 202 124 115 166 184 230 169 98 51 39 10 231 206 60 46 192 105 168 18 189 111 252 207 190 50 114 174 64 23 229 245 198 179 122 25 70 180 114 82 56 123 160 178 217 214 165 33 32 0 16 88 168 16 245 185 216 179 119 19 203 131 104 205 160 70 116 84 148 37 175 110 235 255 171 96 101 85 26 233 14 22 200 152 51 223 191 138 60 195 71 234 193 205 171 255 132 185 157 218 245 134 92 128 100 163 91 172 15 222 155 203 50 167 197 198 212 25 144 91 12 49 99 245 115 22 24 73 40 183 172 124 159 195 88 79 137 186 224 144 209 29 243 52 95 217 97 197 160 53 52 49 220 145 55 166 100 248 166 104 84 213 140 140 12 231 155 174 172 129 11 97 121 156 168 186 247 190 170 135 253 50 84 38 213 33 137 109 97 3 209 74 89 119 55 61 219 84 14 5 208 193 220 97 200 92 5 114 0 105 222 114 23 193 42 122 147 166 188 25 34 150 114 224 200 245 125 80 32 33 162 193 243 126 249 249 102 201 34 41 199 245 240 160 58 47 200 144 129 187 61 73 108 3 57 83 67 215 213 0 196 69 19 228 80 147 167 255 196 222 169 5 180 45 142 67 7 224 72 181 206 177 64 200 5 251 253 64 199 143 112 122 90 244 17 171 30 65 57 149 99 235 215 137 236 54 176 180 32 183 220 86 169 162 218 173 240 83 170 180 231 242 109 255 156 59 142 243 187 228 161 148 47 157 106 207 203 226 92 179 72 59 88 6 161 38 35 107 8 101 201 235 9 238 117 63 243 209 173 0 93 119 205 169 117 64 174 151 216 168 131 219 138 186 165 2 114 136 201 142 72 161 53 240 16 122 23 176 142 82 160 248 106 58 152 243 122 235 204 254 204 162 4 160 180 186 39 14 139 10 225 61 77 66 202 151 84 158 52 146 39 105 106 35 27 195 48 175 230 240 159 50 114 110 127 231 240 128 47 90 133 79 171 77 18 100 16 51 185 100 244 177 129 200 184 216 10 180 201 47 79 214 88 4 25 62 18 52 204 61 75 29 37 9 247 13 183 113 42 204 126 216 117 55 75 61 143 8 58 60 223 155 161 40 179 124 164 116 75 9 130 98 63 253 172 165 165 228 147 96 54 155 229 13 171 127 28 121 240 101 246 20 253 225 62 208 127 51 47 100 28 5 79 145 242 208 110 248 96 85 48 213 253 217 211 113 180 40 124 94 16 66 95 196 20 179 95 217 133 110 38 187 0 102 63 153 21 37 105 90 115 73 240 182 116 74 139 7 230 204 247 113 0 218 233 40 215 53 91 184 195 68 55 95 155 5 237 5 200 142 66 249 104 234 67 243 0 224 40 248 228 31 182 181 4 110 103 159 173 136 130 27 60 175 132 89 24 228 149 182 135 202 237 49 157 65 123 14 64 250 44 105 166 68 105 182 180 73 187 81 79 194 232 50 124 30 64 20 108 39 63 15 184 229 78 107 155 60 119 114 76 48 36 188 137 209 230 233 144 159 107 4 186 177 135 59 42 249 93 113 10 86 167 253 180 95 237 200 14 20 183 200 173 89 251 24 9 118 207 25 17 76 79 140 111 117 107 242 174 131 107 138 200 246 113 59 95 5 249 210 31 111 117 130 212 175 73 20 13 115 67 74 97 36 182 233 47 178 29 16 197 71 0 46 93 249 124 240 20 64 196 40 87 184 60 220 38 216 222 2 120 193 125 204 122 223 129 145 70 37 49 185 143 235 25 94 0 214 151 148 236 238 77 165 113 185 118 42 91 111 17 94 233 117 182 204 158 97 98 60 220 151 158 205 227 177 134 218 79 105 88 141 192 249 202 11 226 227 224 214 211 54 11 127 181 73 184 253 31 228 160 180 97 200 227 34 192 114 108 126 164 55 111 19 18 32 36 182 39 247 88 223 246 5 250 49 229 144 115 5 249 72 108 109 231 4 169 22 89 206 126 107 80 165 37 89 112 153 50 107 139 21 231 218 243 45 214 49 25 89 251 211 135 12 199 110 197 25 229 87 54 200 7 138 218 57 214 190 166 227 236 17 212 169 35 176 191 10 148 140 170 219 195 55 136 86 173 119 165 135 186 188 160 154 14 152 208 180 251 106 25 102 97 180 108 29 67 184 144 8 97 215 121 20 83 197 225 5 16 133 252 114 234 32 152 98 207 187 137 203 40 112 4 188 157 221 16 100 22 114 171 152 12 113 244 34 231 57 37 16 78 100 225 146 48 50 52 194 14 59 216 231 81 173 21 211 4 67 11 136 228 240 38 115 249 31 131 233 142 145 200 215 46 101 54 72 211 190 25 76 199 47 119 23 13 182 205 7 176 189 126 181 222 16 53 163 176 77 226 118 73 108 112 220 213 115 208 254 66 154 198 10 14 55 158 140 139 121 34 32 154 80 245 195 211 238 32 250 20 97 67 207 158 246 115 77 134 163 189 141 214 78 255 216 107 13 182 85 222 55 27 108 214 64 65 98 84 26 188 248 169 55 173 94 188 203 230 147 214 227 157 194 17 162 204 90 251 90 230 167 70 29 11 204 101 180 126 177 91 240 122 67 132 194 22 208 173 122 21 177 111 204 181 16 59 62 70 13 218 58 114 162 82 173 51 147 221 31 186 182 90 160 219 19 81 129 8 184 177 252 44 49 97 211 156 171 122 46 235 246 53 181 246 224 138 56 167 8 113 37 231 58 136 5 137 52 107 72 157 198 93 89 4 63 154 88 94 255 54 57 129 13 101 183 136 166 247 56 213 162 115 228 4 80 239 202 211 115 87 89 106 31 186 243 126 237 24 20 229 208 130 228 56 229 205 50 6 230 88 23 106 39 164 7 141 175 97 178 119 55 163 200 46 74 56 61 235 66 213 178 37 192 14 119 222 247 153 169 22 172 143 111 170 128 138 132 113 216 151 34 203 148 202 103 46 135 99 159 173 204 87 14 134 254 245 225 251 91 176 3 140 2 198 191 210 81 76 20 116 219 246 142 5 190 149 239 5 175 158 26 89 97 130 141 244 115 8 29 216 64 5 13 253 198 109 164 210 196 171 156 142 61 117 94 173 6 89 136 234 234 56 239 36 47 110 223 134 17 19 221 242 22 20 232 106 11 227 200 187 175 207 245 74 47 14 55 122 194 100 203 208 167 63 207 10 129 95 248 234 0 151 118 216 51 131 108 77 70 149 67 223 228 133 69 254 178 46 175 123 111 77 179 243 110 209 175 125 166 224 19 4 165 142 144 171 62 220 16 125 24 35 184 177 83 95 193 106 16 150 36 103 172 109 168 66 151 114 1 51 175 159 252 50 135 21 44 57 80 50 207 45 224 52 172 138 222 33 25 86 211 240 29 44 127 29 139 23 51 143 120 209 172 2 163 87 131 180 34 43 191 149 132 129 109 29 25 232 171 168 193 104 103 165 79 137 171 201 198 130 24 226 48 187 197 12 229 159 227 189 66 16 243 124 251 27 42 166 117 203 12 54 144 190 53 224 209 40 171 148 70 47 181 243 110 124 234 165 9 209 79 122 43 128 198 46 41 208 146 209 99 48 142 94 148 48 236 34 176 92 169 104 243 242 4 28 214 217 157 57 78 35 56 8 82 69 57 157 158 2 127 125 68 138 239 14 197 156 180 79 23 10 198 120 75 44 102 170 173 65 10 65 235 54 109 195 27 238 118 33 13 226 98 34 251 195 122 94 181 166 97 63 194 210 239 188 76 1 165 53 187 5 32 98 83 177 59 138 85 31 158 136 230 75 164 67 231 109 9 244 223 11 165 191 175 129 15 218 110 65 226 65 82 43 185 80 188 112 175 252 251 216 203 155 101 109 226 2 20 217 99 166 69 26 238 129 118 44 155 204 84 106 62 117 170 234 181 220 142 122 254 198 133 187 161 15 255 49 174 191 3 227 194 41 250 245 148 189 49 178 237 8 64 209 103 6 208 195 151 123 195 181 141 43 108 62 181 130 209 105 174 52 9 79 225 28 255 93 135 213 59 99 219 236 12 38 14 109 41 35 78 31 165 92 238 61 174 0 85 58 183 124 187 129 161 123 196 36 199 240 154 249 35 61 207 234 52 244 121 198 108 191 109 201 105 13 70 173 41 33 147 216 76 83 229 48 38 70 99 70 144 169 55 159 207 36 97 223 207 47 85 110 250 8 215 115 118 254 72 117 17 60 85 246 160 5 25 130 154 28 177 232 27 210 87 57 34 68 242 175 218 230 80 33 141 237 88 82 209 18 168 214 120 49 153 18 42 16 5 29 223 200 241 44 139 116 142 225 245 68 201 84 245 220 160 222 124 12 121 56 147 217 194 152 121 70 5 166 136 251 59 245 197 133 20 49 140 14 166 201 27 89 147 125 246 225 110 101 140 76 46 83 216 142 253 102 45 109 74 44 126 213 229 67 152 142 42 143 144 118 245 45 162 173 63 43 125 124 102 181 57 16 138 28 95 4 72 251 223 146 118 167 237 237 64 157 57 48 206 164 238 241 38 155 237 203 30 156 95 204 207 46 96 7 4 186 23 63 38 18 118 100 135 57 170 159 4 205 92 137 204 241 253 188 250 75 138 80 169 160 156 42 50 63 76 75 52 230 71 191 216 178 12 198 71 19 91 188 214 111 104 22 116 127 30 175 244 99 121 212 162 55 194 39 130 191 250 59 177 86 168 198 145 74 217 22 114 172 102 210 75 231 45 255 32 169 193 61 126 79 65 30 224 250 159 159 233 209 89 245 165 153 174 63 247 97 139 108 124 163 77 22 28 44 215 35 252 249 87 86 220 212 111 98 74 137 217 29 39 40 76 152 157 97 207 202 229 224 192 120 18 140 140 241 5 247 196 130 54 213 124 41 156 143 217 136 19 1 224 179 154 70 39 26 60 41 70 178 63 201 57 80 111 5 10 147 225 187 235 119 215 177 197 69 119 79 158 108 145 41 85 22 132 40 66 89 103 23 69 169 186 57 193 135 108 160 23 97 10 18 96 26 212 116 216 0 179 147 18 221 184 150 116 110 177 148 241 126 148 33 149 11 57 50 183 160 185 152 229 221 6 51 184 58 113 208 15 2 110 232 11 185 252 145 7 181 122 105 212 3 236 18 194 87 63 56 185 60 216 235 197 173 40 197 117 9 123 14 233 7 211 23 221 177 215 9 2 181 32 33 26 216 185 121 185 142 131 236 220 3 151 41 136 150 112 47 254 252 168 50 72 100 174 239 77 235 81 148 44 248 39 79 240 34 30 250 202 203 185 178 85 251 218 193 252 165 105 0 103 235 246 217 222 183 33 52 224 80 239 107 81 158 73 170 134 245 228 61 54 69 192 247 81 15 80 145 149 63 97 61 84 248 159 35 5 122 190 186 105 28 212 40 243 251 43 64 81 252 29 249 254 223 208 228 79 141 160 126 61 44 71 165 83 98 241 165 165 244 64 69 221 115 101 80 55 91 228 73 94 206 59 202 37 216 64 168 208 16 249 34 124 143 95 214 58 240 54 27 59 20 48 9 151 156 3 245 53 24 253 158 13 80 119 185 104 186 22 94 46 112 162 216 255 21 237 142 101 119 248 102 33 179 83 231 147 15 240 5 135 212 98 149 14 50 221 49 196 108 65 22 42 240 231 153 143 112 123 29 212 160 198 101 8 154 62 201 39 73 94 134 74 58 202 181 126 185 238 209 50 80 177 73 240 95 152 55 139 103 42 221 194 11 101 24 12 154 34 115 37 155 1 230 93 117 130 46 32 170 129 233 91 150 86 186 52 225 217 152 71 191 163 77 12 101 113 146 46 54 97 157 46 9 43 11 12 1 74 77 134 193 24 38 191 217 128 49 21 98 184 175 11 252 251 170 75 24 150 135 221 33 48 252 196 11 74 15 238 194 123 25 65 111 91 124 24 57 41 210 61 144 121 143 164 230 242 106 123 185 145 151 44 181 246 211 107 71 74 223 106 43 142 233 36 51 16 140 59 203 89 198 46 167 54 208 67 195 225 28 179 28 172 10 180 134 73 111 10 184 204 84 6 119 104 47 150 233 139 216 2 99 247 103 169 54 146 26 207 162 64 32 235 141 6 52 20 119 76 228 104 195 155 22 38 23 49 170 184 64 89 95 79 25 105 221 87 91 165 35 43 61 68 180 198 231 254 239 234 253 236 94 74 119 180 235 229 117 253 32 123 101 76 130 166 254 85 62 197 58 69 1 31 253 38 245 101 90 191 231 35 136 116 27 177 101 172 233 242 67 83 31 231 238 237 10 244 75 114 111 227 217 150 8 130 184 33 206 235 37 184 69 108 247 136 8 187 216 202 12 212 109 16 251 56 252 250 49 247 16 103 181 115 8 88 182 55 109 153 94 253 102 32 131 163 214 12 85 152 203 3 1 231 0 198 209 142 1 245 114 161 229 124 152 246 36 175 23 149 217 250 81 175 151 103 17 78 156 199 173 240 215 108 6 20 205 147 209 254 198 231 99 60 16 79 32 228 16 208 114 137 69 243 101 243 231 135 147 200 170 13 248 182 218 167 185 64 133 241 15 198 135 44 80 99 222 147 232 239 169 231 62 140 202 195 19 93 84 57 226 133 17 203 181 172 14 124 7 56 202 61 175 52 41 127 170 250 227 65 211 255 11 166 92 222 16 41 169 91 21 252 10 122 86 228 28 193 220 153 134 215 185 60 194 50 17 91 118 147 122 24 158 44 56 208 22 242 105 220 181 225 220 138 6 24 127 83 178 65 227 223 223 15 133 237 252 37 222 131 3 186 238 159 245 21 101 23 167 39 170 208 52 199 73 243 224 126 90 54 77 186 182 149 223 121 153 38 31 92 226 106 131 124 4 90 139 92 131 72 233 224 100 174 171 53 3 31 126 240 185 235 166 106 155 41 79 146 179 60 66 147 232 109 8 104 223 205 67 57 48 2 136 172 27 108 28 247 103 211 236 151 34 208 252 28 139 216 200 107 218 26 189 53 125 17 53 223 253 155 212 216 241 217 234 198 153 185 236 71 21 43 204 128 17 205 201 135 181 254 57 85 249 14 79 218 160 249 248 208 227 193 181 194 96 28 235 47 116 77 251 185 88 106 87 233 66 218 153 145 212 212 209 130 168 101 168 183 98 235 221 179 229 101 26 93 192 149 120 88 197 13 23 153 136 101 36 104 213 45 104 190 242 68 105 3 53 134 251 193 29 27 149 27 33 158 6 7 156 205 174 74 83 177 178 204 119 179 43 87 83 187 193 255 83 72 36 158 192 113 253 65 251 93 193 207 11 100 159 166 230 203 150 221 6 205 4 226 69 97 29 44 15 183 48 235 1 128 95 194 37 185 240 80 104 17 121 98 223 45 69 34 88 62 223 79 58 169 89 236 219 220 85 160 147 25 121 64 79 178 80 5 35 67 102 120 231 254 185 17 21 246 139 55 241 209 125 233 227 54 226 150 29 92 127 215 193 68 109 111 233 87 5 174 246 194 154 78 141 76 55 105 108 202 191 215 124 62 43 167 50 137 41 179 96 235 143 219 171 89 250 56 178 9 116 37 214 102 197 126 15 51 219 9 66 64 131 21 19 171 167 247 99 128 42 82 96 53 118 128 117 222 194 202 39 5 136 121 171 213 95 219 18 230 26 105 15 192 78 240 207 65 39 73 72 30 69 6 141 53 13 115 242 153 165 182 182 75 151 188 54 43 249 203 212 176 193 25 135 230 220 166 232 28 35 31 91 222 124 179 233 149 114 37 149 80 141 146 253 246 237 95 49 105 185 80 242 212 122 154 137 80 92 55 103 142 98 188 118 61 93 93 29 169 153 123 94 97 145 25 237 16 29 157 70 57 114 42 10 50 182 187 136 191 196 229 3 103 121 122 100 229 62 79 107 5 184 12 56 48 119 19 31 237 231 107 100 7 85 83 130 203 117 103 175 171 76 7 118 200 32 14 239 173 25 231 234 46 13 129 233 230 252 61 176 242 247 4 105 144 251 250 51 154 72 41 108 204 94 172 239 137 38 191 2 50 64 223 117 99 154 160 209 173 228 90 110 117 69 181 48 63 186 244 178 58 174 250 97 117 122 115 34 139 221 63 18 151 104 175 138 214 104 51 119 23 179 102 12 144 59 102 237 223 182 225 240 174 202 167 210 8 181 128 185 135 91 65 244 10 142 132 140 231 90 23 59 249 21 238 93 123 106 198 185 217 174 32 82 33 149 241 123 212 58 146 52 248 106 90 186 135 117 100 233 237 31 233 35 76 95 14 115 171 132 121 193 113 98 230 146 204 81 70 128 7 48 76 91 38 213 58 202 213 73 49 220 235 31 162 138 224 70 80 100 245 40 219 187 47 93 23 13 70 224 164 117 151 45 231 74 205 15 40 116 64 130 107 131 14 160 114 25 175 252 166 152 34 165 132 184 180 46 5 108 198 16 113 65 159 61 69 2 252 121 113 46 224 200 187 238 194 157 157 70 129 4 164 200 169 213 9 183 226 44 208 188 212 225 225 57 194 204 164 229 21 155 252 155 2 33 63 167 79 113 198 118 32 190 182 103 45 1 60 220 4 14 106 210 50 201 224 180 226 46 116 10 107 236 86 142 216 209 14 194 250 9 251 129 164 123 62 254 227 134 44 55 235 56 172 156 54 203 80 173 129 185 88 200 81 77 232 79 34 228 237 159 39 32 244 170 224 139 235 235 9 12 94 60 212 82 156 197 179 242 69 144 97 124 77 253 192 117 227 232 142 1 33 53 25 177 109 125 117 99 240 18 193 64 126 26 251 1 97 62 168 42 81 34 94 40 169 69 156 137 186 78 253 27 72 254 131 221 226 208 229 33 202 3 46 157 48 219 72 134 133 136 238 108 41 194 118 17 64 174 93 12 124 194 166 205 109 5 41 19 101 213 110 109 84 208 102 96 122 115 205 148 141 253 20 219 56 234 100 99 21 199 226 245 9 253 160 218 47 70 102 84 72 86 20 227 120 223 121 67 155 14 107 78 186 92 210 240 240 168 253 126 144 0 229 88 219 95 57 187 202 197 43 54 240 6 238 103 203 165 136 105 24 137 85 76 115 145 79 171 91 43 233 220 215 135 94 80 135 123 202 24 136 160 128 52 2 152 181 53 173 210 160 68 65 173 156 170 119 154 132 229 231 78 94 11 39 8 176 99 209 104 48 158 123 144 42 191 208 248 153 149 197 85 144 155 45 251 173 71 130 32 197 217 48 78 230 93 86 91 244 93 20 18 149 31 138 145 9 88 252 24 189 23 245 221 7 35 159 242 251 56 80 222 186 92 189 82 123 74 74 233 135 41 86 115 41 203 38 212 75 151 79 228 90 64 64 194 112 141 198 128 158 150 186 128 64 140 110 141 173 22 14 243 22 159 199 63 200 34 191 124 208 1 45 109 17 103 108 177 178 242 107 81 185 0 173 23 237 81 227 190 145 207 204 83 156 89 123 12 58 81 2 165 173 24 89 22 87 251 44 33 124 34 182 37 21 36 10 42 184 243 244 179 83 187 166 25 36 154 94 52 129 1 70 67 48 55 156 230 15 33 42 93 31 17 200 172 90 135 199 192 167 42 219 84 28 80 38 132 209 227 138 234 114 95 51 198 41 228 85 111 208 231 250 183 44 129 28 21 247 104 35 206 119 136 180 29 46 254 226 94 100 178 46 146 8 91 223 67 242 68 78 43 6 187 85 112 205 8 159 178 53 79 140 142 223 191 4 251 19 142 74 36 150 41 228 68 223 47 254 97 111 218 207 171 68 175 221 137 93 123 138 96 133 91 51 182 201 69 76 109 76 139 155 117 217 196 158 104 221 223 53 9 106 192 98 179 124 236 153 49 60 59 76 4 142 142 15 233 43 3 248 148 44 145 126 213 186 145 22 154 236 215 177 148 237 138 154 168 4 247 141 56 228 155 86 53 83 70 44 109 183 123 213 38 69 250 55 235 112 67 75 74 63 69 218 111 68 181 13 34 235 218 77 58 163 154 226 239 138 170 113 119 82 13 0 48 110 31 110 11 199 220 48 176 217 59 74 62 186 200 238 193 11 82 145 255 179 148 153 192 183 196 203 134 179 104 123 116 98 255 84 28 142 30 47 237 19 224 165 204 117 199 8 233 63 143 143 66 138 166 50 163 146 29 65 255 173 195 157 40 38 125 7 44 12 233 45 159 194 184 209 178 204 107 7 244 22 186 61 41 10 151 53 84 171 93 221 61 19 13 183 136 133 59 157 19 30 74 128 219 63 133 56 155 54 84 187 221 228 90 137 205 65 184 132 142 240 223 140 229 90 111 142 25 47 114 223 186 2 254 220 38 108 168 240
